<svg width="186" height="59" viewBox="0 0 186 59" fill="none" xmlns="http://www.w3.org/2000/svg">
<path d="M25.7351 2.01095C26.1165 2.01095 26.4853 2.11332 26.8166 2.30524L48.4033 15.0619C49.0722 15.4586 49.4848 16.1879 49.4848 16.9748V42.4881C49.4848 43.275 49.0722 44.0107 48.4033 44.401L26.8166 57.1577C26.4915 57.3496 26.1165 57.4519 25.7351 57.4519C25.3538 57.4519 24.9849 57.3496 24.6536 57.1577L3.06694 44.401C2.39802 44.0043 1.98542 43.275 1.98542 42.4881V16.9748C1.98542 16.1879 2.39802 15.4522 3.06694 15.0619L24.6536 2.30524C24.9849 2.11332 25.3538 2.01095 25.7351 2.01095ZM25.7351 0.731445C25.1475 0.731445 24.5598 0.884988 24.0284 1.19847L2.44178 13.9551C1.38527 14.5757 0.735107 15.7337 0.735107 16.9748V42.4881C0.735107 43.7356 1.38527 44.8872 2.44178 45.5078L24.0284 58.2644C24.5536 58.5779 25.1475 58.7314 25.7351 58.7314C26.3228 58.7314 26.9104 58.5779 27.4418 58.2644L49.0284 45.5078C50.0849 44.8872 50.7351 43.7292 50.7351 42.4881V16.9748C50.7351 15.7273 50.0849 14.5757 49.0284 13.9551L27.4418 1.19847C26.9104 0.884988 26.3228 0.731445 25.7351 0.731445Z" fill="url(#paint0_linear_21_5016)"/>
<path d="M30.6271 37.4434H20.6191L18.9631 42.2314H13.6711L22.7071 17.0674H28.5751L37.6111 42.2314H32.2831L30.6271 37.4434ZM29.2591 33.4114L25.6231 22.8994L21.9871 33.4114H29.2591ZM46.0286 25.2034C46.6766 24.2434 47.5646 23.4634 48.6926 22.8634C49.8446 22.2634 51.1526 21.9634 52.6166 21.9634C54.3206 21.9634 55.8566 22.3834 57.2246 23.2234C58.6166 24.0634 59.7086 25.2634 60.5006 26.8234C61.3166 28.3594 61.7246 30.1474 61.7246 32.1874C61.7246 34.2274 61.3166 36.0394 60.5006 37.6234C59.7086 39.1834 58.6166 40.3954 57.2246 41.2594C55.8566 42.1234 54.3206 42.5554 52.6166 42.5554C51.1286 42.5554 49.8206 42.2674 48.6926 41.6914C47.5886 41.0914 46.7006 40.3234 46.0286 39.3874V42.2314H40.9886V15.5914H46.0286V25.2034ZM56.5766 32.1874C56.5766 30.9874 56.3246 29.9554 55.8206 29.0914C55.3406 28.2034 54.6926 27.5314 53.8766 27.0754C53.0846 26.6194 52.2206 26.3914 51.2846 26.3914C50.3726 26.3914 49.5086 26.6314 48.6926 27.1114C47.9006 27.5674 47.2526 28.2394 46.7486 29.1274C46.2686 30.0154 46.0286 31.0594 46.0286 32.2594C46.0286 33.4594 46.2686 34.5034 46.7486 35.3914C47.2526 36.2794 47.9006 36.9634 48.6926 37.4434C49.5086 37.8994 50.3726 38.1274 51.2846 38.1274C52.2206 38.1274 53.0846 37.8874 53.8766 37.4074C54.6926 36.9274 55.3406 36.2434 55.8206 35.3554C56.3246 34.4674 56.5766 33.4114 56.5766 32.1874ZM74.2431 42.5554C72.3231 42.5554 70.5951 42.1354 69.0591 41.2954C67.5231 40.4314 66.3111 39.2194 65.4231 37.6594C64.5591 36.0994 64.1271 34.2994 64.1271 32.2594C64.1271 30.2194 64.5711 28.4194 65.4591 26.8594C66.3711 25.2994 67.6071 24.0994 69.1671 23.2594C70.7271 22.3954 72.4671 21.9634 74.3871 21.9634C76.3071 21.9634 78.0471 22.3954 79.6071 23.2594C81.1671 24.0994 82.3911 25.2994 83.2791 26.8594C84.1911 28.4194 84.6471 30.2194 84.6471 32.2594C84.6471 34.2994 84.1791 36.0994 83.2431 37.6594C82.3311 39.2194 81.0831 40.4314 79.4991 41.2954C77.9391 42.1354 76.1871 42.5554 74.2431 42.5554ZM74.2431 38.1634C75.1551 38.1634 76.0071 37.9474 76.7991 37.5154C77.6151 37.0594 78.2631 36.3874 78.7431 35.4994C79.2231 34.6114 79.4631 33.5314 79.4631 32.2594C79.4631 30.3634 78.9591 28.9114 77.9511 27.9034C76.9671 26.8714 75.7551 26.3554 74.3151 26.3554C72.8751 26.3554 71.6631 26.8714 70.6791 27.9034C69.7191 28.9114 69.2391 30.3634 69.2391 32.2594C69.2391 34.1554 69.7071 35.6194 70.6431 36.6514C71.6031 37.6594 72.8031 38.1634 74.2431 38.1634ZM107.172 22.2874V42.2314H102.096V39.7114C101.448 40.5754 100.596 41.2594 99.5401 41.7634C98.5081 42.2434 97.3801 42.4834 96.1561 42.4834C94.5961 42.4834 93.2161 42.1594 92.0161 41.5114C90.8161 40.8394 89.8681 39.8674 89.1721 38.5954C88.5001 37.2994 88.1641 35.7634 88.1641 33.9874V22.2874H93.2041V33.2674C93.2041 34.8514 93.6001 36.0754 94.3921 36.9394C95.1841 37.7794 96.2641 38.1994 97.6321 38.1994C99.0241 38.1994 100.116 37.7794 100.908 36.9394C101.7 36.0754 102.096 34.8514 102.096 33.2674V22.2874H107.172ZM118.013 26.4274V36.0754C118.013 36.7474 118.169 37.2394 118.481 37.5514C118.817 37.8394 119.369 37.9834 120.137 37.9834H122.477V42.2314H119.309C115.061 42.2314 112.937 40.1674 112.937 36.0394V26.4274H110.561V22.2874H112.937V17.3554H118.013V22.2874H122.477V26.4274H118.013ZM153.508 22.2874V42.2314H148.432V39.7114C147.784 40.5754 146.932 41.2594 145.876 41.7634C144.844 42.2434 143.716 42.4834 142.492 42.4834C140.932 42.4834 139.552 42.1594 138.352 41.5114C137.152 40.8394 136.204 39.8674 135.508 38.5954C134.836 37.2994 134.5 35.7634 134.5 33.9874V22.2874H139.54V33.2674C139.54 34.8514 139.936 36.0754 140.728 36.9394C141.52 37.7794 142.6 38.1994 143.968 38.1994C145.36 38.1994 146.452 37.7794 147.244 36.9394C148.036 36.0754 148.432 34.8514 148.432 33.2674V22.2874H153.508ZM166.113 42.5554C164.481 42.5554 163.017 42.2674 161.721 41.6914C160.425 41.0914 159.393 40.2874 158.625 39.2794C157.881 38.2714 157.473 37.1554 157.401 35.9314H162.477C162.573 36.6994 162.945 37.3354 163.593 37.8394C164.265 38.3434 165.093 38.5954 166.077 38.5954C167.037 38.5954 167.781 38.4034 168.309 38.0194C168.861 37.6354 169.137 37.1434 169.137 36.5434C169.137 35.8954 168.801 35.4154 168.129 35.1034C167.481 34.7674 166.437 34.4074 164.997 34.0234C163.509 33.6634 162.285 33.2914 161.325 32.9074C160.389 32.5234 159.573 31.9354 158.877 31.1434C158.205 30.3514 157.869 29.2834 157.869 27.9394C157.869 26.8354 158.181 25.8274 158.805 24.9154C159.453 24.0034 160.365 23.2834 161.541 22.7554C162.741 22.2274 164.145 21.9634 165.753 21.9634C168.129 21.9634 170.025 22.5634 171.441 23.7634C172.857 24.9394 173.637 26.5354 173.781 28.5514H168.957C168.885 27.7594 168.549 27.1354 167.949 26.6794C167.373 26.1994 166.593 25.9594 165.609 25.9594C164.697 25.9594 163.989 26.1274 163.485 26.4634C163.005 26.7994 162.765 27.2674 162.765 27.8674C162.765 28.5394 163.101 29.0554 163.773 29.4154C164.445 29.7514 165.489 30.0994 166.905 30.4594C168.345 30.8194 169.533 31.1914 170.469 31.5754C171.405 31.9594 172.209 32.5594 172.881 33.3754C173.577 34.1674 173.937 35.2234 173.961 36.5434C173.961 37.6954 173.637 38.7274 172.989 39.6394C172.365 40.5514 171.453 41.2714 170.253 41.7994C169.077 42.3034 167.697 42.5554 166.113 42.5554Z" fill="#012626"/>
<defs>
<linearGradient id="paint0_linear_21_5016" x1="0.735045" y1="29.73" x2="50.7342" y2="29.73" gradientUnits="userSpaceOnUse">
<stop stop-color="#F1F5E7"/>
<stop offset="0.649038" stop-color="#024241"/>
</linearGradient>
</defs>
</svg>
