<svg width="79" height="75" viewBox="0 0 79 75" fill="none" xmlns="http://www.w3.org/2000/svg">
<path d="M27.057 1.23933C20.4498 2.23117 15.1396 4.44374 10.4246 8.19749C5.51111 12.0886 2.29143 17.0325 0.93337 22.7547C0.261968 25.6234 0.277227 30.1554 0.979147 33.0546C1.8947 36.7473 3.86312 40.6231 6.24355 43.3698C6.65555 43.8428 6.99125 44.2853 6.99125 44.3616C6.99125 44.4227 5.55689 45.9333 3.80209 47.7034C1.0707 50.4348 0.597669 50.9994 0.506114 51.4877C0.246709 52.8152 0.765519 54.0207 1.7421 54.4327C2.53558 54.7684 34.3356 54.7378 36.7771 54.4174C45.9783 53.1662 53.5774 49.0614 58.7197 42.5916C61.2069 39.4482 63.0533 35.2824 63.6789 31.3761C63.9688 29.6061 63.9688 25.9744 63.6789 24.2043C61.9241 13.3398 52.3872 4.30641 39.951 1.71236C35.9531 0.873104 30.7497 0.689995 27.057 1.23933ZM47.9773 20.71C48.8318 21.122 49.1828 21.7476 49.1828 22.9073C49.1828 23.6855 49.1065 24.006 48.847 24.3722C48.1146 25.4098 49.0759 25.3488 32.1688 25.3488C15.2617 25.3488 16.223 25.4098 15.4906 24.3722C15.0176 23.7008 15.0176 22.1138 15.4906 21.4424C16.223 20.4201 15.2159 20.4658 32.1383 20.4658C45.9631 20.4658 47.5042 20.4964 47.9773 20.71ZM38.2114 30.4758C39.0659 30.8878 39.4169 31.5134 39.4169 32.6731C39.4169 33.4514 39.3406 33.7718 39.0812 34.138C38.364 35.1451 38.7913 35.1146 27.2859 35.1146C15.7805 35.1146 16.2078 35.1451 15.4906 34.138C15.0176 33.4666 15.0176 31.8797 15.4906 31.2083C16.2078 30.2012 15.75 30.2317 27.2554 30.2317C36.5787 30.2317 37.7537 30.2622 38.2114 30.4758Z" fill="white"/>
<path d="M68.5903 29.6521C68.3003 35.42 65.7978 41.4626 61.6474 46.4219C57.4969 51.3658 51.1491 55.501 44.6029 57.5305C39.2012 59.1938 35.9968 59.5142 24.9339 59.5295C18.9828 59.5295 18.5556 59.5447 18.6471 59.7889C18.9065 60.4603 20.6461 62.6576 22.172 64.2293C26.7345 68.9749 32.5177 72.0725 39.4301 73.4916C42.6955 74.1477 43.4585 74.1782 60.5945 74.1782H76.9675L77.4863 73.7967C78.4324 73.0948 78.8139 71.8283 78.3866 70.7144C78.3103 70.4855 76.8149 68.868 75.0754 67.1132C72.6339 64.6718 71.9625 63.8936 72.0693 63.7257C72.1609 63.6189 72.6187 63.0391 73.0917 62.4745C75.7468 59.2853 77.6694 54.9822 78.3408 50.786C78.6765 48.6802 78.5545 44.4839 78.112 42.5155C76.876 37.1748 74.2667 32.8107 69.9483 28.8891C69.3685 28.3703 68.8497 27.9431 68.7886 27.9431C68.7276 27.9431 68.636 28.7213 68.5903 29.6521Z" fill="#85D5C8"/>
</svg>
