<svg width="22" height="31" viewBox="0 0 22 31" fill="none" xmlns="http://www.w3.org/2000/svg">
<path d="M14.7342 18.0466L4.72145 12.2656C3.4933 11.5551 1.92086 11.9765 1.21172 13.2047C0.502581 14.4341 0.923954 16.0052 2.1521 16.7144L12.1636 22.4954C13.393 23.2058 14.9641 22.7845 15.6733 21.555C16.385 20.3269 15.9636 18.7557 14.7342 18.0466ZM6.47631 11.7954L14.264 16.2917L16.913 8.92027L11.5354 5.8165L6.47631 11.7954ZM0.735107 30.7314L8.18492 21.6822L4.84734 19.7552L0.735107 30.7314ZM20.1311 4.844L13.4572 0.989985C12.5348 0.458131 11.3568 0.772875 10.8249 1.69527C10.2918 2.61767 10.6091 3.79571 11.5302 4.32756L18.2054 8.18158C19.1278 8.71344 20.3058 8.39869 20.8377 7.4763C21.3695 6.5539 21.0535 5.37586 20.1311 4.844Z" fill="#85D5C8"/>
</svg>
