<svg width="25" height="22" viewBox="0 0 25 22" fill="none" xmlns="http://www.w3.org/2000/svg">
<path d="M11.924 11.1053H3.99264M3.76783 12.145L2.45746 16.0593C1.73978 18.2031 1.38094 19.275 1.63846 19.935C1.86208 20.5083 2.34239 20.9429 2.93507 21.1084C3.61755 21.2988 4.64836 20.8349 6.70998 19.9073L19.9269 13.9596C21.9392 13.054 22.9454 12.6013 23.2563 11.9723C23.5265 11.4259 23.5265 10.7846 23.2563 10.2382C22.9454 9.60932 21.9392 9.15652 19.9269 8.25097L6.68719 2.29314C4.63177 1.36821 3.60408 0.905744 2.92228 1.09546C2.33016 1.26022 1.8499 1.69365 1.62549 2.26583C1.36709 2.92468 1.72209 3.99426 2.43212 6.13343L3.77037 10.1654C3.89231 10.5328 3.95329 10.7166 3.97736 10.9044C3.99872 11.0712 3.9985 11.2399 3.97672 11.4066C3.95216 11.5944 3.89072 11.7779 3.76783 12.145Z" stroke="white" stroke-width="1.58661" stroke-linecap="round" stroke-linejoin="round"/>
</svg>
